<svg xmlns="http://www.w3.org/2000/svg" width="195" height="51" viewBox="0 0 195 51">
    <g fill="none" fill-rule="evenodd">
        <g>
            <path fill="#2D2A26" d="M130.911 28.238h5.087V9.26h-5.087v18.978zm-33.233 0h5.088V9.26h-5.088v18.978zm90.14 0h-5.087V9.26h4.931v4.617c.43-2.7 1.887-4.888 5.173-4.888.604 0 1.641.108 2.165.25l-.196 4.578c-.438-.16-1.412-.25-1.851-.25-3.718 0-5.135 2.345-5.135 6.727v7.944zm-18.782-3.913c2.896 0 4.656-2.27 4.656-5.517 0-3.248-1.76-5.557-4.656-5.557-2.895 0-4.656 2.31-4.656 5.557 0 3.247 1.761 5.517 4.656 5.517zm.039-15.378c5.948 0 9.822 4.03 9.822 9.861 0 5.791-3.913 9.821-9.822 9.821-5.947 0-9.9-4.03-9.9-9.82 0-5.91 3.835-9.862 9.9-9.862zm-19.017 21.835c-1.37 3.443-3.522 5.282-7.396 5.282-1.33 0-2.229-.057-3.359-.168l.15-4.393c1.027.112 1.696.14 2.661.14 1.761 0 2.896-.43 3.484-2.23l.312-.823-7.239-19.33h5.478l4.344 13.187 4.656-13.187h5.362l-8.453 21.522zm-33.503-6.457c2.895 0 4.852-2.348 4.852-5.596v-.39c0-2.935-1.996-5.088-4.852-5.088-2.818 0-4.814 2.192-4.814 5.557 0 3.286 1.957 5.517 4.814 5.517zm-1.096-15.378c2.387 0 4.774 1.017 5.987 2.817V.651h5.087v27.587h-4.93V25.42c-1.331 2.075-3.561 3.21-6.183 3.21-5.165 0-8.844-4.03-8.844-9.822 0-5.792 3.796-9.86 8.883-9.86zM51.198 3.593h4.775V9.26h4.383v4.265h-4.54v6.77c0 2.66.575 3.522 3.197 3.522.409 0 1.126-.053 1.662-.149l-.005 4.292c-1.094.171-2.003.278-3.066.278-4.618 0-6.679-2.309-6.679-6.77v-7.943h-3.874V9.26h4.147V3.593zm-15.103 0h4.774V9.26h4.384v4.265h-4.54v6.77c0 2.66.574 3.522 3.195 3.522.42 0 1.101-.04 1.663-.149l-.006 4.292c-1.112.208-2.085.278-3.065.278-4.617 0-6.679-2.309-6.679-6.77v-7.943h-3.874V9.26h4.148V3.593zm28.388 24.645h5.087V9.26h-5.087v18.978zm-40.185 0h5.087V9.26h-5.087v18.978zm59.025-3.913c2.818 0 4.892-2.465 4.892-5.517v-.392c0-3.052-2.231-5.165-4.931-5.165-2.778 0-4.734 2.231-4.734 5.557 0 3.404 1.917 5.517 4.773 5.517zm-9.939-5.517c0-5.753 3.6-9.86 8.844-9.86 2.583 0 5.008 1.251 6.143 3.05V9.26h4.931V27.3c0 5.751-3.989 9.331-10.133 9.331-5.067 0-8.474-2.263-9.119-6.383h5.165c.514 1.703 1.979 2.157 4.032 2.157 3.013 0 4.968-1.74 4.968-4.95V25.42c-1.057 1.918-3.092 3.21-6.183 3.21-5.009 0-8.648-4.187-8.648-9.822zM9.939 24.325c2.818 0 4.892-2.465 4.892-5.517v-.392c0-3.052-2.23-5.165-4.931-5.165-2.778 0-4.735 2.231-4.735 5.557 0 3.404 1.918 5.517 4.774 5.517zM0 18.808c0-5.753 3.601-9.86 8.844-9.86 2.583 0 5.009 1.251 6.143 3.05V9.26h4.931V27.3c0 5.751-3.99 9.331-10.134 9.331-5.066 0-8.473-2.263-9.119-6.383h5.166c.515 1.703 1.98 2.157 4.031 2.157 3.014 0 4.969-1.74 4.969-4.95V25.42c-1.057 1.918-3.092 3.21-6.183 3.21C3.64 28.63 0 24.442 0 18.807z"/>
            <path fill="#76777A" d="M160.83 42.141l2.347 4.682 2.354-4.682h1.449l-4.247 8.344h-1.55l1.228-2.317-3.186-6.027h1.604zm-12.995-2.66v3.452s.74-1.03 2.466-1.022c1.726.008 3.328 1.176 3.288 3.269-.005.267-.033.52-.082.755.3-1.477 2.764-1.554 3.475-1.56h.454l.428-.002h.504l.218-.001c.008-.847-.249-1.535-1.65-1.562-1.29-.023-1.544.71-1.588.902l-.007.04-.001.005h-1.461c.296-2.126 3.153-1.865 3.153-1.865 2.977.122 2.915 1.786 2.95 2.474.03.594.004 1.437 0 2.38v.377c.004.694.027 1.044.027 1.044l-1.271.006-.059-.851c-.542.685-1.273 1.07-2.55 1.076-1.281.009-2.917-.564-2.637-2.396l-.043.172c-.408 1.451-1.659 2.224-3.175 2.224-1.833 0-2.461-1.03-2.461-1.03l-.056.818h-1.344c.053-.562.061-1.409.061-1.409l-.004-1.406c-.004.095-.01.15-.01.15h-5.53s.076 1.935 2.073 1.972c1.552.028 1.833-1.05 1.833-1.05l1.435-.004s-.153 1.959-3.274 1.959c-3.21 0-3.451-2.44-3.464-3.006v-.112-.192c.02-.892.373-3.177 3.547-3.177 2.89 0 3.339 2.088 3.388 3.088l-.02-5.519h1.387zm10.764 5.817h-1.607c-.3-.002-2.174.025-2.093 1.113.08 1.108 1.468 1.106 1.468 1.106 2.487.03 2.232-2.22 2.232-2.22zm-8.617-2.453c-2.004.053-2.134 1.895-2.14 2.251v.09c.005.27.109 2.305 2.143 2.28 2.034-.026 2.14-1.974 2.145-2.234v-.029s.073-2.415-2.148-2.358zm20.048 3.189v.18l-.302.904h-.366l.108-1.084h.56zm10.843-3.97c.956 0 1.602.682 1.602 1.7 0 .115-.015.232-.022.252h-2.65c0 .654.453 1.156 1.085 1.156.495 0 .862-.215.976-.589h.582c-.18.675-.776 1.092-1.55 1.092-1.005 0-1.682-.761-1.682-1.803 0-1.055.69-1.808 1.66-1.808zm-11.196 0c.813 0 1.366.43 1.394 1.09h-.567c-.014-.366-.338-.617-.819-.617-.46 0-.732.18-.732.481 0 .21.18.366.618.481l.537.15c.712.188 1.027.496 1.027.992 0 .61-.595 1.034-1.428 1.034-.876 0-1.429-.482-1.429-1.15h.568c.014.396.307.668.875.668.51 0 .833-.215.833-.538 0-.244-.108-.394-.575-.524l-.538-.144c-.704-.193-1.07-.466-1.07-.955 0-.582.546-.968 1.306-.968zm14.393-.985v1.042h.919v.488h-.962v1.759c0 .532.121.755.602.755.122 0 .26-.015.396-.044v.509c-.137.03-.31.05-.474.05-.755 0-1.085-.4-1.085-1.241v-1.788h-.732v-.488h.797v-1.042h.539zm-11.584 1.042v3.481h-.574v-3.481h.574zm2.541-.044c.166 0 .274.015.374.044l-.021.53c-.094-.02-.187-.035-.33-.035-.647 0-.963.495-.963 1.344v1.643h-.573V42.12h.545v.688c.079-.437.48-.732.968-.732zm1.53-1.535v3.28l1.624-1.701h.76l-1.565 1.615 1.731 1.867h-.784l-1.341-1.471-.424.401v1.07h-.574v-5.061h.574zm-33.509 2.282c-1.974 0-2.074 1.75-2.074 1.75h4.04s0-1.75-1.966-1.75zm37.832-.259c-.588 0-1.033.418-1.061 1.027h2.074c0-.61-.416-1.027-1.013-1.027zm4.792 3.037h.576v-3.481h-.576v3.481zm4.803-5.068v5.069h-.546v-.654c-.208.445-.726.725-1.25.725-.934 0-1.643-.732-1.643-1.808 0-1.07.717-1.81 1.651-1.81.48 0 1.004.252 1.212.662v-2.184h.576zm-1.717 2.046c-.66 0-1.134.496-1.134 1.286s.467 1.284 1.134 1.284c.675 0 1.135-.581 1.135-1.3v-.07c0-.646-.482-1.2-1.135-1.2zm-2.788-1.938c.221 0 .4.179.4.4 0 .22-.179.4-.4.4-.22 0-.4-.18-.4-.4 0-.221.18-.4.4-.4zm5.525 4.96h.576v-3.481h-.576v3.481zm3.116-3.525c.165 0 .273.015.373.044l-.02.53c-.095-.02-.188-.035-.332-.035-.646 0-.962.495-.962 1.344v1.643h-.573V42.12h.546v.688c.078-.437.48-.732.968-.732zm-2.82-1.44c.221 0 .4.18.4.4 0 .221-.179.4-.4.4-.22 0-.4-.179-.4-.4 0-.22.18-.4.4-.4zm-19.583.802c.221 0 .4-.18.4-.4 0-.221-.179-.4-.4-.4-.22 0-.4.179-.4.4 0 .22.18.4.4.4z"/>
            <path fill="#EA0029" d="M29.838 2.997C29.838 1.342 28.496 0 26.84 0c-1.655 0-2.997 1.342-2.997 2.997 0 1.655 1.342 2.997 2.997 2.997 1.655 0 2.997-1.342 2.997-2.997"/>
            <path fill="#80BC00" d="M70.023 2.997C70.023 1.342 68.681 0 67.026 0c-1.655 0-2.997 1.342-2.997 2.997 0 1.655 1.342 2.997 2.997 2.997 1.655 0 2.997-1.342 2.997-2.997"/>
            <path fill="#0071CE" d="M103.219 2.997c0-1.655-1.342-2.997-2.997-2.997-1.655 0-2.997 1.342-2.997 2.997 0 1.655 1.342 2.997 2.997 2.997 1.655 0 2.997-1.342 2.997-2.997"/>
            <path fill="#F5A800" d="M136.451 2.997c0-1.655-1.342-2.997-2.997-2.997-1.655 0-2.997 1.342-2.997 2.997 0 1.655 1.342 2.997 2.997 2.997 1.655 0 2.997-1.342 2.997-2.997"/>
        </g>
    </g>
</svg>
